# xmcd
#
# Track frame offsets:
#  150
#  13743
#  30280
#  47220
#  67945
#  82021
#  99808
#  118608
#  133219
#  148677
#  163661
#  175343
#  191871
#  207430
#  225032
#
# Disc length: 3142 seconds
#
# Revision: 0
# Processed by: cddbd v1.4PL0 Copyright (c) Steve Scherf et al.
# Submitted via: AltoMP3_Maker 3.0
#
DISCID=c70c440f
DTITLE=The McCloskey Brothers Band - The McCloskey Brothers Band
DYEAR=1900
DGENRE=
TTITLE0=Together Home
TTITLE1=Hurricane
TTITLE2=Son's Going Down
TTITLE3=Angel
TTITLE4=Dream
TTITLE5=Sunny On Top
TTITLE6=Rocked
TTITLE7=Waiting
TTITLE8=Who Are You
TTITLE9=Let the Party Begin
TTITLE10=Coming of the Winter
TTITLE11=Jahbute
TTITLE12=San Juanita
TTITLE13=Seasons Change
TTITLE14=Peace with God
EXTD=
EXTT0=
EXTT1=
EXTT2=
EXTT3=
EXTT4=
EXTT5=
EXTT6=
EXTT7=
EXTT8=
EXTT9=
EXTT10=
EXTT11=
EXTT12=
EXTT13=
EXTT14=
PLAYORDER=
